<svg width="180" height="33" viewBox="0 0 180 33" fill="none" xmlns="http://www.w3.org/2000/svg">
<g clip-path="url(#clip0_204_1806)">
<path d="M7.11344 31.7634C9.98929 32.9737 13.2318 32.9737 16.1129 31.7634C17.4854 31.174 18.7269 30.3215 19.7693 29.2532C20.8222 28.1797 21.6603 26.9115 22.2418 25.5275C23.4466 22.6385 23.4466 19.3811 22.2418 16.4921C21.0632 13.7189 18.8683 11.514 16.1077 10.3299C14.6828 9.7195 13.1428 9.40903 11.5922 9.42481H4.58332V0.105247H-0.000230542V21.023C-0.0107072 22.5701 0.298355 24.1014 0.900765 25.5275C2.08463 28.3376 4.31093 30.5793 7.11344 31.7686V31.7634ZM4.58856 14.0293H11.5975C12.5299 14.0241 13.4518 14.2083 14.3057 14.5714C15.9767 15.2818 17.3073 16.6237 18.0144 18.3023C18.3759 19.1654 18.5645 20.0863 18.554 21.023C18.5645 22.8911 17.8311 24.6908 16.5215 26.0169C15.8877 26.6536 15.1333 27.1641 14.3057 27.5167C13.4466 27.8798 12.5247 28.0692 11.5975 28.0587C11.5713 28.0587 11.5398 28.0587 11.5137 28.0587C7.66871 28.0324 4.56761 24.8802 4.58856 21.0177V14.0293Z" fill="white"/>
<path d="M29.1723 0H24.5835V32.5632H29.1723V0Z" fill="white"/>
<path d="M34.3005 29.148C37.6164 32.5106 42.6347 33.5104 46.9773 31.6581C49.7641 30.4583 51.9747 28.2218 53.1638 25.4223C53.7662 23.9962 54.0753 22.4648 54.0648 20.9177V9.31956H49.476V21.0019C49.4498 24.8645 46.312 27.9797 42.4671 27.9587C41.5347 27.964 40.6127 27.7798 39.7589 27.4167C37.1659 26.3116 35.4896 23.7488 35.5158 20.9177V9.31956H30.927V20.9177C30.9165 22.4648 31.2256 23.9962 31.828 25.4223C32.4095 26.8115 33.2476 28.0745 34.3005 29.148Z" fill="white"/>
<path d="M75.1908 12.8401C74.1013 11.7297 72.7917 10.8562 71.3511 10.2773C68.5591 9.14065 65.4371 9.14065 62.645 10.2773C61.2045 10.8562 59.8949 11.7297 58.8053 12.8401C57.7053 13.9241 56.8462 15.2291 56.2804 16.671C55.7356 18.055 55.458 19.5285 55.458 21.0177C55.458 22.5122 55.7409 23.9962 56.2804 25.3907C56.8409 26.8431 57.7 28.1587 58.8053 29.248C58.821 29.2638 58.842 29.2848 58.8577 29.3006C63.3836 33.8209 70.6964 33.7946 75.1961 29.248L76.7938 27.643L73.546 24.3803L71.9483 25.9853C69.8582 28.1324 66.6314 28.6744 63.9598 27.3325L76.7938 14.4398L75.1961 12.8348L75.1908 12.8401ZM68.0038 16.771C67.129 17.634 66.2176 18.5444 65.2747 19.4916L62.5926 22.1859L60.7121 24.0751C59.3815 21.3913 59.9211 18.1497 62.0531 16.0501C63.0798 14.9818 64.4261 14.2925 65.8876 14.082C67.3071 13.8662 68.7582 14.103 70.0363 14.7555C69.5596 15.2344 68.8786 15.908 68.0038 16.7763V16.771Z" fill="white"/>
<path d="M84.976 16.0027C85.636 15.3291 86.427 14.8029 87.2966 14.4451C88.9833 13.7557 90.8691 13.7557 92.5506 14.4451C93.4202 14.7976 94.2112 15.3291 94.8712 16.0027L96.5213 17.6077L99.7114 14.3451L98.1137 12.7401C97.0242 11.6297 95.7146 10.7562 94.274 10.1773C91.482 9.04066 88.36 9.04066 85.5679 10.1773C84.1274 10.7562 82.8178 11.6297 81.7282 12.7401C80.6282 13.8241 79.7638 15.1344 79.1981 16.571C78.098 19.3811 78.098 22.5069 79.1981 25.317C79.7638 26.7589 80.6229 28.0639 81.723 29.148C82.8125 30.2583 84.1221 31.1319 85.5627 31.7107C88.3547 32.8474 91.4768 32.8474 94.2688 31.7107C95.7094 31.1319 97.0189 30.2583 98.1085 29.148L99.7062 27.543L96.5161 24.2803L94.866 25.8853C94.2321 26.5642 93.4569 27.0957 92.5978 27.443C91.7439 27.785 90.8377 27.964 89.9157 27.9587C88.0509 27.985 86.2646 27.2325 84.9707 25.8906C84.3002 25.2276 83.7712 24.4329 83.4202 23.5594C82.734 21.8649 82.734 19.9705 83.4202 18.276C83.7659 17.413 84.295 16.6342 84.9707 15.9974L84.976 16.0027Z" fill="white"/>
<path d="M124.72 32.5685V20.9177C124.73 19.3601 124.426 17.8182 123.819 16.3869C123.232 15.0081 122.383 13.761 121.32 12.7085C120.256 11.656 119.005 10.8141 117.632 10.2247C116.207 9.61425 114.672 9.30378 113.122 9.31956C111.849 9.3143 110.586 9.52479 109.382 9.94052C108.219 10.3457 107.129 10.9404 106.16 11.7034V0.00526047H101.571V32.5685H106.16V20.9177C106.155 19.981 106.338 19.0549 106.7 18.1971C107.407 16.5184 108.737 15.1818 110.408 14.4714C111.262 14.1083 112.184 13.9188 113.117 13.9294C114.976 13.9188 116.768 14.6556 118.088 15.9711C118.722 16.6079 119.23 17.3657 119.581 18.1971C119.947 19.0601 120.131 19.9863 120.126 20.9177V32.5685H124.714H124.72Z" fill="white"/>
<path d="M130.649 9.31956H126.113V32.5685H130.649V9.31956Z" fill="white"/>
<path d="M136.773 0H132.189V32.5632H136.773V0Z" fill="white"/>
<path d="M143.117 0H138.528V32.5632H143.117V0Z" fill="white"/>
<path d="M149.403 9.31956H144.866V32.5685H149.403V9.31956Z" fill="white"/>
<path d="M157.276 33C156.338 33 155.553 32.7579 154.913 32.2791C154.274 31.8002 153.798 31.1424 153.478 30.311C153.159 29.4795 153.001 28.5428 153.001 27.5009C153.001 26.5589 153.132 25.5749 153.389 24.5435C153.646 23.512 154.039 22.5122 154.557 21.5387C155.076 20.5651 155.715 19.6863 156.469 18.897C157.229 18.1076 158.098 17.4762 159.083 17.0026C160.068 16.5342 161.173 16.2974 162.389 16.2974C162.907 16.2974 163.436 16.35 163.976 16.45C164.515 16.55 165.013 16.6816 165.469 16.8394C165.93 17.0026 166.307 17.1709 166.605 17.3499L168.193 16.6289H169.78L167.805 26.0011C167.763 26.2221 167.7 26.5326 167.611 26.9325C167.522 27.3325 167.449 27.7377 167.386 28.1481C167.328 28.5586 167.297 28.8954 167.297 29.1532C167.297 29.6532 167.391 30.0268 167.58 30.2636C167.768 30.5057 168.025 30.6214 168.345 30.6214C168.622 30.6214 168.895 30.5635 169.151 30.4425C169.408 30.3215 169.701 30.1741 170.021 29.99L170.681 31.1898C170.34 31.4529 169.942 31.7213 169.487 32.0002C169.026 32.2791 168.507 32.5159 167.915 32.7053C167.328 32.8948 166.674 32.9895 165.956 32.9895C165.081 32.9895 164.369 32.7842 163.834 32.3738C163.295 31.9633 163.028 31.3687 163.028 30.5846C163.028 30.2636 163.043 29.9531 163.075 29.6532C163.106 29.3532 163.159 29.0112 163.237 28.6323H163.028C162.551 29.5532 162.053 30.3425 161.535 30.9898C161.016 31.6423 160.424 32.137 159.754 32.479C159.083 32.8211 158.261 32.9895 157.286 32.9895L157.276 33ZM159.157 30.6004C159.597 30.6004 160.042 30.4162 160.503 30.0426C160.959 29.6742 161.399 29.169 161.818 28.5428C162.237 27.9166 162.609 27.2062 162.939 26.4274C163.269 25.6485 163.51 24.8539 163.672 24.0541L164.72 19.0706C164.521 18.7917 164.253 18.5812 163.913 18.4392C163.572 18.2971 163.206 18.2287 162.808 18.2287C162.111 18.2287 161.482 18.4392 160.922 18.8602C160.361 19.2811 159.874 19.8442 159.455 20.5441C159.036 21.244 158.68 22.007 158.392 22.8279C158.104 23.6489 157.889 24.475 157.747 25.3065C157.606 26.1379 157.538 26.8852 157.538 27.543C157.538 28.7059 157.69 29.5058 157.999 29.9479C158.308 30.3899 158.69 30.6109 159.151 30.6109L159.157 30.6004Z" fill="#E6007E"/>
<path d="M175.422 33C174.285 33 173.41 32.7264 172.792 32.1738C172.174 31.6213 171.865 30.8688 171.865 29.9058C171.865 29.6269 171.881 29.3059 171.912 28.9428C171.943 28.5849 171.996 28.1797 172.074 27.7429C172.153 27.3009 172.242 26.8326 172.342 26.3326L173.51 20.7441C173.567 20.4862 173.62 20.2231 173.662 19.9652C173.703 19.7074 173.719 19.5337 173.719 19.4548C173.719 18.9128 173.599 18.5707 173.363 18.4181C173.127 18.2655 172.713 18.1918 172.137 18.1918H171.598L171.896 16.5974H178.952L176.888 26.359C176.81 26.7168 176.736 27.0641 176.679 27.3956C176.621 27.7272 176.569 28.0482 176.527 28.3586C176.485 28.6691 176.469 28.9638 176.469 29.2427C176.469 29.6847 176.564 30.0163 176.752 30.2478C176.941 30.4794 177.197 30.5951 177.517 30.5951C177.837 30.5951 178.125 30.5372 178.387 30.4162C178.643 30.2952 178.947 30.1268 179.282 29.9058L180 30.9266C179.523 31.4266 178.916 31.9002 178.177 32.337C177.438 32.779 176.522 33 175.427 33H175.422ZM176.888 13.8978C176.228 13.8978 175.678 13.7452 175.228 13.4347C174.777 13.1242 174.557 12.6611 174.557 12.0402C174.557 11.4613 174.688 10.9877 174.945 10.6299C175.202 10.2668 175.542 10.0037 175.961 9.83528C176.38 9.66688 176.836 9.57742 177.339 9.57742C177.978 9.57742 178.533 9.72477 179.015 10.0142C179.492 10.3036 179.733 10.793 179.733 11.4719C179.733 12.0139 179.591 12.4612 179.314 12.8243C179.036 13.1874 178.68 13.4558 178.25 13.6347C177.821 13.8136 177.37 13.903 176.888 13.903V13.8978Z" fill="#E6007E"/>
</g>
<defs>
<clipPath id="clip0_204_1806">
<rect width="180" height="33" fill="white"/>
</clipPath>
</defs>
</svg>
