<?xml version="1.0" encoding="UTF-8"?>
<svg xmlns="http://www.w3.org/2000/svg" width="180" height="33.611" viewBox="0 0 180 33.611">
  <g transform="scale(0.9)">
    <g transform="translate(-75.552 -385.452)">
      <path d="M92.2,397.111a12.021,12.021,0,0,1,6.338,6.339,12.049,12.049,0,0,1,0,9.295,12.3,12.3,0,0,1-2.556,3.835,11.838,11.838,0,0,1-3.782,2.584,12.057,12.057,0,0,1-9.3,0,12.078,12.078,0,0,1-6.418-6.419,11.672,11.672,0,0,1-.932-4.634V386.591h4.74v9.588h7.244A11.633,11.633,0,0,1,92.2,397.111Zm-4.661,18.244a7.026,7.026,0,0,0,2.8-.559,7.247,7.247,0,0,0,2.29-1.545,7.258,7.258,0,0,0,2.1-5.14,7.026,7.026,0,0,0-.559-2.8,7.242,7.242,0,0,0-3.835-3.836,7.037,7.037,0,0,0-2.8-.559H80.292v7.191a7.2,7.2,0,0,0,7.244,7.244Z" transform="translate(0 -1.032)" fill="#ffffff"/>
      <path d="M351.724,385.452v33.5h-4.741v-33.5Z" transform="translate(-246.024 0)" fill="#ffffff"/>
      <path d="M440.884,487.882v11.932a11.685,11.685,0,0,1-.932,4.634,12.157,12.157,0,0,1-6.392,6.418,11.895,11.895,0,0,1-13.1-2.584,12.265,12.265,0,0,1-2.557-3.835,11.673,11.673,0,0,1-.932-4.634V487.882h4.741v11.932A7.2,7.2,0,0,0,426.1,506.5a7.018,7.018,0,0,0,2.8.559,7.2,7.2,0,0,0,7.244-7.244V487.882Z" transform="translate(-309.457 -92.842)" fill="#ffffff"/>
      <path d="M706.534,504.415l3.356,3.356-1.651,1.651a11.939,11.939,0,0,1-16.938,0,11.322,11.322,0,0,1-2.611-3.968,12.411,12.411,0,0,1-.852-4.5,12.21,12.21,0,0,1,.852-4.474,11.388,11.388,0,0,1,2.611-3.942,11.664,11.664,0,0,1,3.968-2.637,11.965,11.965,0,0,1,9,0,11.68,11.68,0,0,1,3.968,2.637l1.651,1.651-13.264,13.263a7.1,7.1,0,0,0,8.257-1.385Zm-11.879-8.576a7.126,7.126,0,0,0-1.384,8.256l1.944-1.944,2.77-2.77q1.464-1.464,2.823-2.8t2.1-2.077a7.145,7.145,0,0,0-4.288-.692A6.855,6.855,0,0,0,694.656,495.839Z" transform="translate(-554.973 -93.874)" fill="#ffffff"/>
      <path d="M944.523,491.4a11.684,11.684,0,0,1,3.968-2.637,11.968,11.968,0,0,1,9,0,11.686,11.686,0,0,1,3.968,2.637l1.651,1.651-3.3,3.356-1.705-1.651a7.116,7.116,0,0,0-2.4-1.6,7.194,7.194,0,0,0-5.433,0,7.1,7.1,0,0,0-2.4,1.6,6.572,6.572,0,0,0-1.6,2.344,7.195,7.195,0,0,0,0,5.433,7.085,7.085,0,0,0,1.6,2.4,6.971,6.971,0,0,0,5.113,2.13,7.385,7.385,0,0,0,2.77-.533,6.567,6.567,0,0,0,2.344-1.6l1.705-1.652,3.3,3.356-1.651,1.651a11.667,11.667,0,0,1-3.968,2.637,11.961,11.961,0,0,1-9,0,11.665,11.665,0,0,1-3.968-2.637,11.394,11.394,0,0,1-2.609-3.941,12.305,12.305,0,0,1,0-9A11.407,11.407,0,0,1,944.523,491.4Z" transform="translate(-784.493 -92.842)" fill="#ffffff"/>
      <path d="M1209.066,395.04a11.63,11.63,0,0,1,4.66.932,12.393,12.393,0,0,1,3.809,2.557,11.862,11.862,0,0,1,2.583,3.782,11.637,11.637,0,0,1,.932,4.661v11.985h-4.74V406.971a7.025,7.025,0,0,0-.56-2.8,7.246,7.246,0,0,0-1.545-2.291,7.262,7.262,0,0,0-5.139-2.1,7.022,7.022,0,0,0-2.8.559,7.236,7.236,0,0,0-3.835,3.835,7.029,7.029,0,0,0-.559,2.8v11.985h-4.74v-33.5h4.74V397.49a11.412,11.412,0,0,1,3.329-1.811A11.669,11.669,0,0,1,1209.066,395.04Z" transform="translate(-1016.597 0)" fill="#ffffff"/>
      <path d="M1472.687,487.882V511.8H1468V487.882Z" transform="translate(-1262.108 -92.842)" fill="#ffffff"/>
      <path d="M1539.885,385.452v33.5h-4.74v-33.5Z" transform="translate(-1322.968 0)" fill="#ffffff"/>
      <path d="M1609.869,385.452v33.5h-4.74v-33.5Z" transform="translate(-1386.401 0)" fill="#ffffff"/>
      <path d="M1679.8,487.882V511.8h-4.687V487.882Z" transform="translate(-1449.835 -92.842)" fill="#ffffff"/>
      <g transform="translate(224.36 387.608)">
        <g transform="translate(0 0)">
          <path d="M1668.632,408.486a3.33,3.33,0,1,0,3.331,3.33A3.331,3.331,0,0,0,1668.632,408.486Z" transform="translate(-1665.302 -408.486)" fill="#ffffff"/>
        </g>
      </g>
      <g transform="translate(231.626 387.608)">
        <g transform="translate(0 0)">
          <path d="M1746.254,408.486a3.33,3.33,0,1,0,3.329,3.33A3.331,3.331,0,0,0,1746.254,408.486Z" transform="translate(-1742.924 -408.486)" fill="#ffffff"/>
        </g>
      </g>
      <g transform="translate(238.892 387.608)">
        <g transform="translate(0 0)">
          <path d="M1823.875,408.486a3.33,3.33,0,1,0,3.331,3.33A3.33,3.33,0,0,0,1823.875,408.486Z" transform="translate(-1820.546 -408.486)" fill="#E6007E"/>
        </g>
      </g>
    </g>
  </g>
  <g transform="translate(153, 16.3)">
    <path d="M4.27449 16.7026C3.33683 16.7026 2.55109 16.4605 1.91201 15.9817C1.27293 15.5028 0.79623 14.845 0.476691 14.0136C0.157152 13.1821 0 12.2454 0 11.2035C0 10.2615 0.130969 9.27747 0.387648 8.24605C0.644327 7.21464 1.03719 6.2148 1.55579 5.24127C2.07439 4.26774 2.71348 3.38893 3.4678 2.59959C4.22736 1.81024 5.09692 1.17876 6.08173 0.705152C7.06654 0.236805 8.17182 0 9.38712 0C9.90572 0 10.4348 0.0526237 10.9743 0.152608C11.5139 0.252592 12.0115 0.38415 12.4673 0.542019C12.9282 0.705151 13.3054 0.873546 13.604 1.05246L15.1912 0.331527H16.7784L14.8036 9.70372C14.7617 9.92473 14.6988 10.2352 14.6098 10.6351C14.5207 11.0351 14.4474 11.4403 14.3845 11.8507C14.3269 12.2612 14.2954 12.598 14.2954 12.8558C14.2954 13.3558 14.3897 13.7294 14.5783 13.9662C14.7669 14.2083 15.0236 14.324 15.3431 14.324C15.6207 14.324 15.8931 14.2661 16.1498 14.1451C16.4065 14.0241 16.6999 13.8767 17.0194 13.6926L17.6794 14.8924C17.3389 15.1555 16.9408 15.4239 16.4851 15.7028C16.0241 15.9817 15.5055 16.2185 14.9136 16.4079C14.3269 16.5974 13.6721 16.6921 12.9544 16.6921C12.0796 16.6921 11.3672 16.4868 10.8329 16.0764C10.2934 15.6659 10.0262 15.0713 10.0262 14.2872C10.0262 13.9662 10.0419 13.6557 10.0733 13.3558C10.1048 13.0558 10.1572 12.7138 10.2357 12.3349H10.0262C9.54951 13.2558 9.05186 14.0451 8.53327 14.6924C8.01467 15.3449 7.42274 15.8396 6.75223 16.1816C6.08173 16.5237 5.25931 16.6921 4.28498 16.6921L4.27449 16.7026ZM6.15505 14.303C6.59508 14.303 7.04034 14.1188 7.50131 13.7452C7.95705 13.3768 8.39708 12.8716 8.81614 12.2454C9.23521 11.6192 9.60712 10.9088 9.93714 10.13C10.2672 9.35114 10.5081 8.55653 10.6705 7.75666L11.7182 2.77324C11.5191 2.49434 11.252 2.28385 10.9115 2.14176C10.571 1.99968 10.2043 1.93127 9.80618 1.93127C9.10948 1.93127 8.48089 2.14176 7.92039 2.56275C7.35989 2.98373 6.87271 3.5468 6.45364 4.24669C6.03458 4.94658 5.67837 5.70962 5.39026 6.53054C5.10215 7.35146 4.88739 8.17764 4.74595 9.00909C4.60452 9.84054 4.53641 10.5878 4.53641 11.2456C4.53641 12.4085 4.68832 13.2084 4.99739 13.6505C5.30645 14.0925 5.68885 14.3135 6.14983 14.3135L6.15505 14.303Z" fill="#E6007E"/>
  </g>
  <g transform="translate(171.6, 9.58)">
    <path d="M3.824 23.4226C2.68728 23.4226 1.81247 23.1489 1.19434 22.5964C0.576217 22.0439 0.267161 21.2913 0.267161 20.3283C0.267161 20.0494 0.282874 19.7284 0.314304 19.3653C0.345734 19.0075 0.398116 18.6023 0.476691 18.1655C0.555266 17.7235 0.644323 17.2551 0.743852 16.7552L1.91201 11.1666C1.96963 10.9088 2.022 10.6457 2.06391 10.3878C2.10582 10.13 2.12154 9.95631 2.12154 9.87737C2.12154 9.33535 2.00106 8.9933 1.76534 8.84069C1.52961 8.68809 1.11577 8.61441 0.539549 8.61441H0L0.298589 7.01993H7.35464L5.29073 16.7815C5.21216 17.1394 5.13882 17.4867 5.0812 17.8182C5.02358 18.1497 4.97119 18.4707 4.92928 18.7812C4.88738 19.0917 4.87167 19.3864 4.87167 19.6653C4.87167 20.1073 4.96596 20.4388 5.15455 20.6704C5.34313 20.9019 5.5998 21.0177 5.91934 21.0177C6.23888 21.0177 6.52699 20.9598 6.78891 20.8388C7.04559 20.7177 7.3494 20.5494 7.68466 20.3283L8.40231 21.3492C7.92562 21.8491 7.31798 22.3228 6.57938 22.7595C5.84077 23.2016 4.92406 23.4226 3.82924 23.4226H3.824ZM5.29073 4.32036C4.6307 4.32036 4.08068 4.16776 3.63019 3.85728C3.17969 3.5468 2.95968 3.08372 2.95968 2.46276C2.95968 1.88391 3.09063 1.4103 3.34731 1.05246C3.60399 0.689364 3.94448 0.426248 4.36355 0.257853C4.78262 0.0894593 5.23836 0 5.74124 0C6.38032 0 6.93557 0.147345 7.4175 0.436772C7.89419 0.7262 8.13515 1.21559 8.13515 1.89443C8.13515 2.43645 7.99372 2.88375 7.71609 3.24685C7.43846 3.60995 7.08225 3.87833 6.6527 4.05725C6.22316 4.23617 5.77266 4.32563 5.29073 4.32563V4.32036Z" fill="#E6007E"/>
  </g>
</svg>
